<mxfile host="Electron" modified="2024-03-06T01:51:51.705Z" agent="Mozilla/5.0 (Windows NT 10.0; Win64; x64) AppleWebKit/537.36 (KHTML, like Gecko) draw.io/23.1.5 Chrome/120.0.6099.109 Electron/28.1.0 Safari/537.36" etag="TpxmQ9Y-n86sO4FNqepe" version="23.1.5" type="device">
  <diagram name="Page-1" id="9UkcA9D0R_F5SZ2wBRgY">
    <mxGraphModel dx="2145" dy="1978" grid="1" gridSize="10" guides="1" tooltips="1" connect="1" arrows="1" fold="1" page="1" pageScale="1" pageWidth="850" pageHeight="1100" math="0" shadow="0">
      <root>
        <mxCell id="0" />
        <mxCell id="1" parent="0" />
        <mxCell id="wQ_3aqAwWKURMxEr-K-f-78" value="" style="rounded=0;whiteSpace=wrap;html=1;dashed=1;dashPattern=8 8;fillColor=none;strokeColor=#000000;fontColor=#000000;" parent="1" vertex="1">
          <mxGeometry x="-110" y="-170" width="460" height="140" as="geometry" />
        </mxCell>
        <mxCell id="wQ_3aqAwWKURMxEr-K-f-29" value="" style="rounded=0;whiteSpace=wrap;html=1;dashed=1;dashPattern=8 8;fillColor=none;strokeColor=#000000;fontColor=#000000;" parent="1" vertex="1">
          <mxGeometry x="30" y="-590" width="450" height="320" as="geometry" />
        </mxCell>
        <mxCell id="wQ_3aqAwWKURMxEr-K-f-58" value="" style="rounded=0;whiteSpace=wrap;html=1;dashed=1;dashPattern=8 8;fillColor=none;strokeColor=#000000;fontColor=#000000;" parent="1" vertex="1">
          <mxGeometry x="50" y="-570" width="320" height="130" as="geometry" />
        </mxCell>
        <mxCell id="wQ_3aqAwWKURMxEr-K-f-110" style="edgeStyle=orthogonalEdgeStyle;rounded=0;orthogonalLoop=1;jettySize=auto;html=1;entryX=0;entryY=0.5;entryDx=0;entryDy=0;endArrow=none;endFill=0;fillColor=none;strokeColor=#000000;fontColor=#000000;" parent="1" source="wQ_3aqAwWKURMxEr-K-f-1" target="wQ_3aqAwWKURMxEr-K-f-109" edge="1">
          <mxGeometry relative="1" as="geometry" />
        </mxCell>
        <mxCell id="wQ_3aqAwWKURMxEr-K-f-1" value="Remotely Piloted Aircraft" style="whiteSpace=wrap;html=1;align=center;fillColor=none;strokeColor=#000000;fontColor=#000000;" parent="1" vertex="1">
          <mxGeometry x="135.5" y="-340" width="150" height="40" as="geometry" />
        </mxCell>
        <mxCell id="wQ_3aqAwWKURMxEr-K-f-104" style="edgeStyle=orthogonalEdgeStyle;rounded=0;orthogonalLoop=1;jettySize=auto;html=1;endArrow=none;endFill=0;fillColor=none;strokeColor=#000000;fontColor=#000000;" parent="1" source="wQ_3aqAwWKURMxEr-K-f-2" target="wQ_3aqAwWKURMxEr-K-f-103" edge="1">
          <mxGeometry relative="1" as="geometry" />
        </mxCell>
        <mxCell id="wQ_3aqAwWKURMxEr-K-f-2" value="Organization" style="whiteSpace=wrap;html=1;align=center;fillColor=none;strokeColor=#000000;fontColor=#000000;" parent="1" vertex="1">
          <mxGeometry x="525" y="-650" width="90" height="40" as="geometry" />
        </mxCell>
        <mxCell id="wQ_3aqAwWKURMxEr-K-f-74" style="edgeStyle=orthogonalEdgeStyle;rounded=0;orthogonalLoop=1;jettySize=auto;html=1;endArrow=ERoneToMany;endFill=0;exitX=0.852;exitY=-0.004;exitDx=0;exitDy=0;entryX=0;entryY=0.75;entryDx=0;entryDy=0;exitPerimeter=0;fillColor=none;strokeColor=#000000;fontColor=#000000;" parent="1" source="wQ_3aqAwWKURMxEr-K-f-12" target="wQ_3aqAwWKURMxEr-K-f-66" edge="1">
          <mxGeometry relative="1" as="geometry">
            <mxPoint x="-30" y="-510" as="targetPoint" />
            <Array as="points">
              <mxPoint x="-11" y="-525" />
            </Array>
          </mxGeometry>
        </mxCell>
        <mxCell id="wQ_3aqAwWKURMxEr-K-f-75" style="edgeStyle=orthogonalEdgeStyle;rounded=0;orthogonalLoop=1;jettySize=auto;html=1;entryX=0.25;entryY=0;entryDx=0;entryDy=0;exitX=0.75;exitY=1;exitDx=0;exitDy=0;endArrow=ERoneToMany;endFill=0;fillColor=none;strokeColor=#000000;fontColor=#000000;" parent="1" source="wQ_3aqAwWKURMxEr-K-f-12" target="wQ_3aqAwWKURMxEr-K-f-1" edge="1">
          <mxGeometry relative="1" as="geometry">
            <Array as="points">
              <mxPoint x="-25" y="-370" />
              <mxPoint x="173" y="-370" />
            </Array>
          </mxGeometry>
        </mxCell>
        <mxCell id="wQ_3aqAwWKURMxEr-K-f-122" style="edgeStyle=orthogonalEdgeStyle;rounded=0;orthogonalLoop=1;jettySize=auto;html=1;exitX=0.43;exitY=0.044;exitDx=0;exitDy=0;entryX=0.5;entryY=1;entryDx=0;entryDy=0;endArrow=none;endFill=0;exitPerimeter=0;fillColor=none;strokeColor=#000000;fontColor=#000000;" parent="1" source="wQ_3aqAwWKURMxEr-K-f-12" target="wQ_3aqAwWKURMxEr-K-f-117" edge="1">
          <mxGeometry relative="1" as="geometry" />
        </mxCell>
        <mxCell id="wQ_3aqAwWKURMxEr-K-f-12" value="Maintenance Appointment" style="shape=associativeEntity;whiteSpace=wrap;html=1;align=center;fillColor=none;strokeColor=#000000;fontColor=#000000;" parent="1" vertex="1">
          <mxGeometry x="-130" y="-510" width="140" height="60" as="geometry" />
        </mxCell>
        <mxCell id="wQ_3aqAwWKURMxEr-K-f-82" style="edgeStyle=orthogonalEdgeStyle;rounded=0;orthogonalLoop=1;jettySize=auto;html=1;entryX=0.886;entryY=1.015;entryDx=0;entryDy=0;endArrow=ERmany;endFill=0;entryPerimeter=0;fillColor=none;strokeColor=#000000;fontColor=#000000;" parent="1" source="wQ_3aqAwWKURMxEr-K-f-13" target="wQ_3aqAwWKURMxEr-K-f-1" edge="1">
          <mxGeometry relative="1" as="geometry">
            <Array as="points">
              <mxPoint x="430" y="-180" />
              <mxPoint x="268" y="-180" />
              <mxPoint x="268" y="-299" />
            </Array>
          </mxGeometry>
        </mxCell>
        <mxCell id="wQ_3aqAwWKURMxEr-K-f-83" style="edgeStyle=orthogonalEdgeStyle;rounded=0;orthogonalLoop=1;jettySize=auto;html=1;entryX=0;entryY=0.5;entryDx=0;entryDy=0;endArrow=ERmany;endFill=0;fillColor=none;strokeColor=#000000;fontColor=#000000;" parent="1" source="wQ_3aqAwWKURMxEr-K-f-13" target="wQ_3aqAwWKURMxEr-K-f-18" edge="1">
          <mxGeometry relative="1" as="geometry" />
        </mxCell>
        <mxCell id="wQ_3aqAwWKURMxEr-K-f-13" value="Sortie" style="shape=associativeEntity;whiteSpace=wrap;html=1;align=center;fillColor=none;strokeColor=#000000;fontColor=#000000;" parent="1" vertex="1">
          <mxGeometry x="360" y="-100" width="140" height="60" as="geometry" />
        </mxCell>
        <mxCell id="wQ_3aqAwWKURMxEr-K-f-14" value="Payload" style="whiteSpace=wrap;html=1;align=center;fillColor=none;strokeColor=#000000;fontColor=#000000;" parent="1" vertex="1">
          <mxGeometry x="530" y="-380" width="80" height="40" as="geometry" />
        </mxCell>
        <mxCell id="wQ_3aqAwWKURMxEr-K-f-15" value="Base" style="whiteSpace=wrap;html=1;align=center;fillColor=none;strokeColor=#000000;fontColor=#000000;" parent="1" vertex="1">
          <mxGeometry x="-210" y="-440" width="60" height="40" as="geometry" />
        </mxCell>
        <mxCell id="wQ_3aqAwWKURMxEr-K-f-142" style="edgeStyle=orthogonalEdgeStyle;rounded=0;orthogonalLoop=1;jettySize=auto;html=1;entryX=0;entryY=0.5;entryDx=0;entryDy=0;endArrow=none;endFill=0;fillColor=none;strokeColor=#000000;fontColor=#000000;" parent="1" source="wQ_3aqAwWKURMxEr-K-f-17" target="wQ_3aqAwWKURMxEr-K-f-138" edge="1">
          <mxGeometry relative="1" as="geometry" />
        </mxCell>
        <mxCell id="wQ_3aqAwWKURMxEr-K-f-17" value="Flight Plan" style="whiteSpace=wrap;html=1;align=center;fillColor=none;strokeColor=#000000;fontColor=#000000;" parent="1" vertex="1">
          <mxGeometry x="530" y="-240" width="80" height="40" as="geometry" />
        </mxCell>
        <mxCell id="wQ_3aqAwWKURMxEr-K-f-141" style="edgeStyle=orthogonalEdgeStyle;rounded=0;orthogonalLoop=1;jettySize=auto;html=1;entryX=0;entryY=0.5;entryDx=0;entryDy=0;endArrow=none;endFill=0;fillColor=none;strokeColor=#000000;fontColor=#000000;" parent="1" source="wQ_3aqAwWKURMxEr-K-f-18" target="wQ_3aqAwWKURMxEr-K-f-139" edge="1">
          <mxGeometry relative="1" as="geometry" />
        </mxCell>
        <mxCell id="wQ_3aqAwWKURMxEr-K-f-18" value="Mission" style="whiteSpace=wrap;html=1;align=center;fillColor=none;strokeColor=#000000;fontColor=#000000;" parent="1" vertex="1">
          <mxGeometry x="535" y="-90" width="70" height="40" as="geometry" />
        </mxCell>
        <mxCell id="wQ_3aqAwWKURMxEr-K-f-59" style="edgeStyle=orthogonalEdgeStyle;rounded=0;orthogonalLoop=1;jettySize=auto;html=1;endArrow=ERzeroToOne;endFill=0;fillColor=none;strokeColor=#000000;fontColor=#000000;" parent="1" source="wQ_3aqAwWKURMxEr-K-f-25" target="wQ_3aqAwWKURMxEr-K-f-58" edge="1">
          <mxGeometry relative="1" as="geometry" />
        </mxCell>
        <mxCell id="wQ_3aqAwWKURMxEr-K-f-60" style="edgeStyle=orthogonalEdgeStyle;rounded=0;orthogonalLoop=1;jettySize=auto;html=1;entryX=0.5;entryY=0;entryDx=0;entryDy=0;endArrow=ERzeroToMany;endFill=0;fillColor=none;strokeColor=#000000;fontColor=#000000;" parent="1" source="wQ_3aqAwWKURMxEr-K-f-25" target="wQ_3aqAwWKURMxEr-K-f-1" edge="1">
          <mxGeometry relative="1" as="geometry" />
        </mxCell>
        <mxCell id="wQ_3aqAwWKURMxEr-K-f-25" value="assigned to" style="shape=rhombus;perimeter=rhombusPerimeter;whiteSpace=wrap;html=1;align=center;fillColor=none;strokeColor=#000000;fontColor=#000000;" parent="1" vertex="1">
          <mxGeometry x="150.5" y="-420" width="120" height="60" as="geometry" />
        </mxCell>
        <mxCell id="wQ_3aqAwWKURMxEr-K-f-30" value="Account" style="whiteSpace=wrap;html=1;align=center;fillColor=none;strokeColor=#000000;fontColor=#000000;" parent="1" vertex="1">
          <mxGeometry x="95.5" y="-720" width="100" height="40" as="geometry" />
        </mxCell>
        <mxCell id="wQ_3aqAwWKURMxEr-K-f-36" style="edgeStyle=orthogonalEdgeStyle;rounded=0;orthogonalLoop=1;jettySize=auto;html=1;entryX=0.5;entryY=0;entryDx=0;entryDy=0;endArrow=ERzeroToOne;endFill=0;exitX=0.5;exitY=1;exitDx=0;exitDy=0;fillColor=none;strokeColor=#000000;fontColor=#000000;" parent="1" source="wQ_3aqAwWKURMxEr-K-f-31" target="wQ_3aqAwWKURMxEr-K-f-64" edge="1">
          <mxGeometry relative="1" as="geometry">
            <mxPoint x="95" y="-545" as="targetPoint" />
            <Array as="points">
              <mxPoint x="290" y="-610" />
              <mxPoint x="325" y="-610" />
            </Array>
          </mxGeometry>
        </mxCell>
        <mxCell id="wQ_3aqAwWKURMxEr-K-f-37" style="edgeStyle=orthogonalEdgeStyle;rounded=0;orthogonalLoop=1;jettySize=auto;html=1;endArrow=ERzeroToOne;endFill=0;entryX=0.5;entryY=0;entryDx=0;entryDy=0;exitX=0.5;exitY=1;exitDx=0;exitDy=0;fillColor=none;strokeColor=#000000;fontColor=#000000;" parent="1" source="wQ_3aqAwWKURMxEr-K-f-31" target="wQ_3aqAwWKURMxEr-K-f-66" edge="1">
          <mxGeometry relative="1" as="geometry">
            <mxPoint x="120" y="-620" as="targetPoint" />
            <Array as="points">
              <mxPoint x="290" y="-610" />
              <mxPoint x="111" y="-610" />
            </Array>
          </mxGeometry>
        </mxCell>
        <mxCell id="wQ_3aqAwWKURMxEr-K-f-38" style="edgeStyle=orthogonalEdgeStyle;rounded=0;orthogonalLoop=1;jettySize=auto;html=1;endArrow=ERzeroToOne;endFill=0;entryX=0.5;entryY=0;entryDx=0;entryDy=0;exitX=0.5;exitY=1;exitDx=0;exitDy=0;fillColor=none;strokeColor=#000000;fontColor=#000000;" parent="1" source="wQ_3aqAwWKURMxEr-K-f-31" target="wQ_3aqAwWKURMxEr-K-f-65" edge="1">
          <mxGeometry relative="1" as="geometry">
            <mxPoint x="380" y="-620" as="targetPoint" />
            <Array as="points">
              <mxPoint x="290" y="-610" />
              <mxPoint x="226" y="-610" />
            </Array>
          </mxGeometry>
        </mxCell>
        <mxCell id="wQ_3aqAwWKURMxEr-K-f-39" style="edgeStyle=orthogonalEdgeStyle;rounded=0;orthogonalLoop=1;jettySize=auto;html=1;entryX=0.5;entryY=0;entryDx=0;entryDy=0;endArrow=ERzeroToOne;endFill=0;fillColor=none;strokeColor=#000000;fontColor=#000000;" parent="1" source="wQ_3aqAwWKURMxEr-K-f-31" target="wQ_3aqAwWKURMxEr-K-f-62" edge="1">
          <mxGeometry relative="1" as="geometry">
            <mxPoint x="425" y="-565" as="targetPoint" />
          </mxGeometry>
        </mxCell>
        <mxCell id="wQ_3aqAwWKURMxEr-K-f-98" style="edgeStyle=orthogonalEdgeStyle;rounded=0;orthogonalLoop=1;jettySize=auto;html=1;entryX=1;entryY=0.5;entryDx=0;entryDy=0;endArrow=ERone;endFill=0;fillColor=none;strokeColor=#000000;fontColor=#000000;" parent="1" source="wQ_3aqAwWKURMxEr-K-f-31" target="wQ_3aqAwWKURMxEr-K-f-30" edge="1">
          <mxGeometry relative="1" as="geometry" />
        </mxCell>
        <mxCell id="wQ_3aqAwWKURMxEr-K-f-31" value="ISA" style="shape=rhombus;perimeter=rhombusPerimeter;whiteSpace=wrap;html=1;align=center;fillColor=none;strokeColor=#000000;fontColor=#000000;" parent="1" vertex="1">
          <mxGeometry x="230" y="-730" width="120" height="60" as="geometry" />
        </mxCell>
        <mxCell id="wQ_3aqAwWKURMxEr-K-f-61" style="edgeStyle=orthogonalEdgeStyle;rounded=0;orthogonalLoop=1;jettySize=auto;html=1;entryX=0.5;entryY=1;entryDx=0;entryDy=0;endArrow=ERzeroToMany;endFill=0;fillColor=none;strokeColor=#000000;fontColor=#000000;" parent="1" source="wQ_3aqAwWKURMxEr-K-f-33" target="wQ_3aqAwWKURMxEr-K-f-2" edge="1">
          <mxGeometry relative="1" as="geometry" />
        </mxCell>
        <mxCell id="wQ_3aqAwWKURMxEr-K-f-33" value="belong to" style="shape=rhombus;perimeter=rhombusPerimeter;whiteSpace=wrap;html=1;align=center;fillColor=none;strokeColor=#000000;fontColor=#000000;" parent="1" vertex="1">
          <mxGeometry x="510" y="-585" width="120" height="60" as="geometry" />
        </mxCell>
        <mxCell id="wQ_3aqAwWKURMxEr-K-f-62" value="Planner" style="shape=ext;margin=3;double=1;whiteSpace=wrap;html=1;align=center;fillColor=none;strokeColor=#000000;fontColor=#000000;" parent="1" vertex="1">
          <mxGeometry x="390" y="-545" width="70" height="40" as="geometry" />
        </mxCell>
        <mxCell id="wQ_3aqAwWKURMxEr-K-f-64" value="Pilot" style="shape=ext;margin=3;double=1;whiteSpace=wrap;html=1;align=center;fillColor=none;strokeColor=#000000;fontColor=#000000;" parent="1" vertex="1">
          <mxGeometry x="300" y="-555" width="50" height="40" as="geometry" />
        </mxCell>
        <mxCell id="wQ_3aqAwWKURMxEr-K-f-65" value="Sensor Operator" style="shape=ext;margin=3;double=1;whiteSpace=wrap;html=1;align=center;fillColor=none;strokeColor=#000000;fontColor=#000000;" parent="1" vertex="1">
          <mxGeometry x="165.5" y="-555" width="120" height="40" as="geometry" />
        </mxCell>
        <mxCell id="wQ_3aqAwWKURMxEr-K-f-114" style="edgeStyle=orthogonalEdgeStyle;rounded=0;orthogonalLoop=1;jettySize=auto;html=1;exitX=0.5;exitY=1;exitDx=0;exitDy=0;entryX=0.5;entryY=0;entryDx=0;entryDy=0;endArrow=none;endFill=0;fillColor=none;strokeColor=#000000;fontColor=#000000;" parent="1" source="wQ_3aqAwWKURMxEr-K-f-66" target="wQ_3aqAwWKURMxEr-K-f-113" edge="1">
          <mxGeometry relative="1" as="geometry" />
        </mxCell>
        <mxCell id="wQ_3aqAwWKURMxEr-K-f-66" value="Maintainer" style="shape=ext;margin=3;double=1;whiteSpace=wrap;html=1;align=center;fillColor=none;strokeColor=#000000;fontColor=#000000;" parent="1" vertex="1">
          <mxGeometry x="70.5" y="-555" width="80" height="40" as="geometry" />
        </mxCell>
        <mxCell id="wQ_3aqAwWKURMxEr-K-f-70" style="edgeStyle=orthogonalEdgeStyle;rounded=0;orthogonalLoop=1;jettySize=auto;html=1;entryX=0.5;entryY=0;entryDx=0;entryDy=0;endArrow=ERzeroToOne;endFill=0;fillColor=none;strokeColor=#000000;fontColor=#000000;" parent="1" source="wQ_3aqAwWKURMxEr-K-f-68" target="wQ_3aqAwWKURMxEr-K-f-15" edge="1">
          <mxGeometry relative="1" as="geometry" />
        </mxCell>
        <mxCell id="wQ_3aqAwWKURMxEr-K-f-72" style="edgeStyle=orthogonalEdgeStyle;rounded=0;orthogonalLoop=1;jettySize=auto;html=1;endArrow=ERzeroToMany;endFill=0;entryX=0;entryY=0.25;entryDx=0;entryDy=0;fillColor=none;strokeColor=#000000;fontColor=#000000;" parent="1" source="wQ_3aqAwWKURMxEr-K-f-68" target="wQ_3aqAwWKURMxEr-K-f-66" edge="1">
          <mxGeometry relative="1" as="geometry">
            <mxPoint y="-580" as="targetPoint" />
          </mxGeometry>
        </mxCell>
        <mxCell id="wQ_3aqAwWKURMxEr-K-f-68" value="located at" style="shape=rhombus;perimeter=rhombusPerimeter;whiteSpace=wrap;html=1;align=center;fillColor=none;strokeColor=#000000;fontColor=#000000;" parent="1" vertex="1">
          <mxGeometry x="-240" y="-575" width="120" height="60" as="geometry" />
        </mxCell>
        <mxCell id="wQ_3aqAwWKURMxEr-K-f-71" style="edgeStyle=orthogonalEdgeStyle;rounded=0;orthogonalLoop=1;jettySize=auto;html=1;entryX=0.5;entryY=1;entryDx=0;entryDy=0;endArrow=ERzeroToOne;endFill=0;fillColor=none;strokeColor=#000000;fontColor=#000000;" parent="1" source="wQ_3aqAwWKURMxEr-K-f-69" target="wQ_3aqAwWKURMxEr-K-f-15" edge="1">
          <mxGeometry relative="1" as="geometry" />
        </mxCell>
        <mxCell id="wQ_3aqAwWKURMxEr-K-f-73" style="edgeStyle=orthogonalEdgeStyle;rounded=0;orthogonalLoop=1;jettySize=auto;html=1;entryX=0;entryY=0.5;entryDx=0;entryDy=0;endArrow=ERzeroToMany;endFill=0;fillColor=none;strokeColor=#000000;fontColor=#000000;" parent="1" source="wQ_3aqAwWKURMxEr-K-f-69" target="wQ_3aqAwWKURMxEr-K-f-1" edge="1">
          <mxGeometry relative="1" as="geometry" />
        </mxCell>
        <mxCell id="wQ_3aqAwWKURMxEr-K-f-69" value="located at" style="shape=rhombus;perimeter=rhombusPerimeter;whiteSpace=wrap;html=1;align=center;fillColor=none;strokeColor=#000000;fontColor=#000000;" parent="1" vertex="1">
          <mxGeometry x="-240" y="-350" width="120" height="60" as="geometry" />
        </mxCell>
        <mxCell id="wQ_3aqAwWKURMxEr-K-f-76" value="Flight Log" style="shape=ext;margin=3;double=1;whiteSpace=wrap;html=1;align=center;fillColor=none;strokeColor=#000000;fontColor=#000000;" parent="1" vertex="1">
          <mxGeometry x="200.5" y="-90" width="85" height="40" as="geometry" />
        </mxCell>
        <mxCell id="wQ_3aqAwWKURMxEr-K-f-77" value="Maintenance Log" style="shape=ext;margin=3;double=1;whiteSpace=wrap;html=1;align=center;fillColor=none;strokeColor=#000000;fontColor=#000000;" parent="1" vertex="1">
          <mxGeometry x="60.5" y="-90" width="125" height="40" as="geometry" />
        </mxCell>
        <mxCell id="wQ_3aqAwWKURMxEr-K-f-80" style="edgeStyle=orthogonalEdgeStyle;rounded=0;orthogonalLoop=1;jettySize=auto;html=1;endArrow=ERone;endFill=0;entryX=0.25;entryY=1;entryDx=0;entryDy=0;fillColor=none;strokeColor=#000000;fontColor=#000000;" parent="1" source="wQ_3aqAwWKURMxEr-K-f-79" target="wQ_3aqAwWKURMxEr-K-f-1" edge="1">
          <mxGeometry relative="1" as="geometry" />
        </mxCell>
        <mxCell id="wQ_3aqAwWKURMxEr-K-f-81" style="edgeStyle=orthogonalEdgeStyle;rounded=0;orthogonalLoop=1;jettySize=auto;html=1;endArrow=ERzeroToOne;endFill=0;fillColor=none;strokeColor=#000000;fontColor=#000000;" parent="1" source="wQ_3aqAwWKURMxEr-K-f-79" edge="1">
          <mxGeometry relative="1" as="geometry">
            <mxPoint x="172" y="-170" as="targetPoint" />
          </mxGeometry>
        </mxCell>
        <mxCell id="wQ_3aqAwWKURMxEr-K-f-79" value="have" style="shape=rhombus;perimeter=rhombusPerimeter;whiteSpace=wrap;html=1;align=center;fillColor=none;strokeColor=#000000;fontColor=#000000;" parent="1" vertex="1">
          <mxGeometry x="110" y="-250" width="125" height="60" as="geometry" />
        </mxCell>
        <mxCell id="wQ_3aqAwWKURMxEr-K-f-85" style="edgeStyle=orthogonalEdgeStyle;rounded=0;orthogonalLoop=1;jettySize=auto;html=1;entryX=0;entryY=0.5;entryDx=0;entryDy=0;endArrow=ERzeroToMany;endFill=0;fillColor=none;strokeColor=#000000;fontColor=#000000;" parent="1" source="wQ_3aqAwWKURMxEr-K-f-84" target="wQ_3aqAwWKURMxEr-K-f-17" edge="1">
          <mxGeometry relative="1" as="geometry" />
        </mxCell>
        <mxCell id="wQ_3aqAwWKURMxEr-K-f-87" style="edgeStyle=orthogonalEdgeStyle;rounded=0;orthogonalLoop=1;jettySize=auto;html=1;entryX=0.5;entryY=1;entryDx=0;entryDy=0;endArrow=ERzeroToOne;endFill=0;fillColor=none;strokeColor=#000000;fontColor=#000000;" parent="1" source="wQ_3aqAwWKURMxEr-K-f-84" target="wQ_3aqAwWKURMxEr-K-f-62" edge="1">
          <mxGeometry relative="1" as="geometry" />
        </mxCell>
        <mxCell id="wQ_3aqAwWKURMxEr-K-f-84" value="create" style="shape=rhombus;perimeter=rhombusPerimeter;whiteSpace=wrap;html=1;align=center;fillColor=none;strokeColor=#000000;fontColor=#000000;" parent="1" vertex="1">
          <mxGeometry x="365" y="-250" width="120" height="60" as="geometry" />
        </mxCell>
        <mxCell id="wQ_3aqAwWKURMxEr-K-f-89" style="edgeStyle=orthogonalEdgeStyle;rounded=0;orthogonalLoop=1;jettySize=auto;html=1;entryX=0.5;entryY=1;entryDx=0;entryDy=0;endArrow=ERzeroToOne;endFill=0;fillColor=none;strokeColor=#000000;fontColor=#000000;" parent="1" source="wQ_3aqAwWKURMxEr-K-f-88" target="wQ_3aqAwWKURMxEr-K-f-14" edge="1">
          <mxGeometry relative="1" as="geometry" />
        </mxCell>
        <mxCell id="wQ_3aqAwWKURMxEr-K-f-90" style="edgeStyle=orthogonalEdgeStyle;rounded=0;orthogonalLoop=1;jettySize=auto;html=1;entryX=0.5;entryY=0;entryDx=0;entryDy=0;endArrow=ERzeroToMany;endFill=0;fillColor=none;strokeColor=#000000;fontColor=#000000;" parent="1" source="wQ_3aqAwWKURMxEr-K-f-88" target="wQ_3aqAwWKURMxEr-K-f-17" edge="1">
          <mxGeometry relative="1" as="geometry">
            <mxPoint x="570" y="-220" as="targetPoint" />
          </mxGeometry>
        </mxCell>
        <mxCell id="wQ_3aqAwWKURMxEr-K-f-88" value="have" style="shape=rhombus;perimeter=rhombusPerimeter;whiteSpace=wrap;html=1;align=center;fillColor=none;strokeColor=#000000;fontColor=#000000;" parent="1" vertex="1">
          <mxGeometry x="510" y="-320" width="120" height="60" as="geometry" />
        </mxCell>
        <mxCell id="wQ_3aqAwWKURMxEr-K-f-92" style="edgeStyle=orthogonalEdgeStyle;rounded=0;orthogonalLoop=1;jettySize=auto;html=1;endArrow=ERzeroToOne;endFill=0;fillColor=none;strokeColor=#000000;fontColor=#000000;" parent="1" source="wQ_3aqAwWKURMxEr-K-f-91" target="wQ_3aqAwWKURMxEr-K-f-17" edge="1">
          <mxGeometry relative="1" as="geometry" />
        </mxCell>
        <mxCell id="wQ_3aqAwWKURMxEr-K-f-93" style="edgeStyle=orthogonalEdgeStyle;rounded=0;orthogonalLoop=1;jettySize=auto;html=1;endArrow=ERzeroToMany;endFill=0;fillColor=none;strokeColor=#000000;fontColor=#000000;" parent="1" source="wQ_3aqAwWKURMxEr-K-f-91" target="wQ_3aqAwWKURMxEr-K-f-18" edge="1">
          <mxGeometry relative="1" as="geometry" />
        </mxCell>
        <mxCell id="wQ_3aqAwWKURMxEr-K-f-91" value="have" style="shape=rhombus;perimeter=rhombusPerimeter;whiteSpace=wrap;html=1;align=center;fillColor=none;strokeColor=#000000;fontColor=#000000;" parent="1" vertex="1">
          <mxGeometry x="510" y="-180" width="120" height="60" as="geometry" />
        </mxCell>
        <mxCell id="wQ_3aqAwWKURMxEr-K-f-100" style="edgeStyle=orthogonalEdgeStyle;rounded=0;orthogonalLoop=1;jettySize=auto;html=1;endArrow=none;endFill=0;entryX=0.5;entryY=0;entryDx=0;entryDy=0;fillColor=none;strokeColor=#000000;fontColor=#000000;" parent="1" source="wQ_3aqAwWKURMxEr-K-f-94" target="wQ_3aqAwWKURMxEr-K-f-99" edge="1">
          <mxGeometry relative="1" as="geometry">
            <mxPoint x="-150" y="-640" as="targetPoint" />
          </mxGeometry>
        </mxCell>
        <mxCell id="wQ_3aqAwWKURMxEr-K-f-94" value="Device" style="whiteSpace=wrap;html=1;align=center;fillColor=none;strokeColor=#000000;fontColor=#000000;" parent="1" vertex="1">
          <mxGeometry x="-200" y="-720" width="100" height="40" as="geometry" />
        </mxCell>
        <mxCell id="wQ_3aqAwWKURMxEr-K-f-96" style="edgeStyle=orthogonalEdgeStyle;rounded=0;orthogonalLoop=1;jettySize=auto;html=1;endArrow=ERzeroToOne;endFill=0;fillColor=none;strokeColor=#000000;fontColor=#000000;" parent="1" source="wQ_3aqAwWKURMxEr-K-f-95" target="wQ_3aqAwWKURMxEr-K-f-30" edge="1">
          <mxGeometry relative="1" as="geometry">
            <mxPoint x="90" y="-700" as="targetPoint" />
          </mxGeometry>
        </mxCell>
        <mxCell id="wQ_3aqAwWKURMxEr-K-f-97" style="edgeStyle=orthogonalEdgeStyle;rounded=0;orthogonalLoop=1;jettySize=auto;html=1;endArrow=ERzeroToMany;endFill=0;fillColor=none;strokeColor=#000000;fontColor=#000000;" parent="1" source="wQ_3aqAwWKURMxEr-K-f-95" target="wQ_3aqAwWKURMxEr-K-f-94" edge="1">
          <mxGeometry relative="1" as="geometry" />
        </mxCell>
        <mxCell id="wQ_3aqAwWKURMxEr-K-f-95" value="belong" style="shape=rhombus;perimeter=rhombusPerimeter;whiteSpace=wrap;html=1;align=center;fillColor=none;strokeColor=#000000;fontColor=#000000;" parent="1" vertex="1">
          <mxGeometry x="-64.5" y="-730" width="120" height="60" as="geometry" />
        </mxCell>
        <mxCell id="wQ_3aqAwWKURMxEr-K-f-99" value="device_id" style="ellipse;whiteSpace=wrap;html=1;align=center;fontStyle=4;fillColor=none;strokeColor=#000000;fontColor=#000000;" parent="1" vertex="1">
          <mxGeometry x="-200" y="-620" width="100" height="40" as="geometry" />
        </mxCell>
        <mxCell id="wQ_3aqAwWKURMxEr-K-f-102" style="edgeStyle=orthogonalEdgeStyle;rounded=0;orthogonalLoop=1;jettySize=auto;html=1;exitX=0.5;exitY=0;exitDx=0;exitDy=0;entryX=0.5;entryY=1;entryDx=0;entryDy=0;endArrow=none;endFill=0;fillColor=none;strokeColor=#000000;fontColor=#000000;" parent="1" source="wQ_3aqAwWKURMxEr-K-f-101" target="wQ_3aqAwWKURMxEr-K-f-30" edge="1">
          <mxGeometry relative="1" as="geometry" />
        </mxCell>
        <mxCell id="wQ_3aqAwWKURMxEr-K-f-101" value="account_id" style="ellipse;whiteSpace=wrap;html=1;align=center;fontStyle=4;fillColor=none;strokeColor=#000000;fontColor=#000000;" parent="1" vertex="1">
          <mxGeometry x="95.5" y="-660" width="100" height="40" as="geometry" />
        </mxCell>
        <mxCell id="wQ_3aqAwWKURMxEr-K-f-103" value="organization_id" style="ellipse;whiteSpace=wrap;html=1;align=center;fontStyle=4;fillColor=none;strokeColor=#000000;fontColor=#000000;" parent="1" vertex="1">
          <mxGeometry x="520" y="-720" width="100" height="40" as="geometry" />
        </mxCell>
        <mxCell id="wQ_3aqAwWKURMxEr-K-f-106" style="edgeStyle=orthogonalEdgeStyle;rounded=0;orthogonalLoop=1;jettySize=auto;html=1;entryX=0.999;entryY=0.104;entryDx=0;entryDy=0;entryPerimeter=0;endArrow=ERzeroToOne;endFill=0;fillColor=none;strokeColor=#000000;fontColor=#000000;" parent="1" source="wQ_3aqAwWKURMxEr-K-f-33" target="wQ_3aqAwWKURMxEr-K-f-29" edge="1">
          <mxGeometry relative="1" as="geometry" />
        </mxCell>
        <mxCell id="wQ_3aqAwWKURMxEr-K-f-107" value="payload_id" style="ellipse;whiteSpace=wrap;html=1;align=center;fontStyle=4;fillColor=none;strokeColor=#000000;fontColor=#000000;" parent="1" vertex="1">
          <mxGeometry x="520" y="-450" width="100" height="40" as="geometry" />
        </mxCell>
        <mxCell id="wQ_3aqAwWKURMxEr-K-f-108" style="edgeStyle=orthogonalEdgeStyle;rounded=0;orthogonalLoop=1;jettySize=auto;html=1;exitX=0.5;exitY=1;exitDx=0;exitDy=0;entryX=0.5;entryY=0;entryDx=0;entryDy=0;endArrow=none;endFill=0;fillColor=none;strokeColor=#000000;fontColor=#000000;" parent="1" source="wQ_3aqAwWKURMxEr-K-f-107" target="wQ_3aqAwWKURMxEr-K-f-14" edge="1">
          <mxGeometry relative="1" as="geometry" />
        </mxCell>
        <mxCell id="wQ_3aqAwWKURMxEr-K-f-109" value="rpa_id" style="ellipse;whiteSpace=wrap;html=1;align=center;fontStyle=4;fillColor=none;strokeColor=#000000;fontColor=#000000;" parent="1" vertex="1">
          <mxGeometry x="320" y="-340" width="60" height="40" as="geometry" />
        </mxCell>
        <mxCell id="wQ_3aqAwWKURMxEr-K-f-111" value="account_id" style="ellipse;whiteSpace=wrap;html=1;align=center;fontStyle=4;fillColor=none;strokeColor=#000000;fontColor=#000000;" parent="1" vertex="1">
          <mxGeometry x="265" y="-490" width="100" height="40" as="geometry" />
        </mxCell>
        <mxCell id="wQ_3aqAwWKURMxEr-K-f-112" value="account_id" style="ellipse;whiteSpace=wrap;html=1;align=center;fontStyle=4;fillColor=none;strokeColor=#000000;fontColor=#000000;" parent="1" vertex="1">
          <mxGeometry x="160" y="-490" width="100" height="40" as="geometry" />
        </mxCell>
        <mxCell id="wQ_3aqAwWKURMxEr-K-f-113" value="account_id" style="ellipse;whiteSpace=wrap;html=1;align=center;fontStyle=4;fillColor=none;strokeColor=#000000;fontColor=#000000;" parent="1" vertex="1">
          <mxGeometry x="55.5" y="-490" width="100" height="40" as="geometry" />
        </mxCell>
        <mxCell id="wQ_3aqAwWKURMxEr-K-f-115" style="edgeStyle=orthogonalEdgeStyle;rounded=0;orthogonalLoop=1;jettySize=auto;html=1;exitX=0.5;exitY=1;exitDx=0;exitDy=0;entryX=0.5;entryY=0;entryDx=0;entryDy=0;endArrow=none;endFill=0;fillColor=none;strokeColor=#000000;fontColor=#000000;" parent="1" source="wQ_3aqAwWKURMxEr-K-f-65" target="wQ_3aqAwWKURMxEr-K-f-112" edge="1">
          <mxGeometry relative="1" as="geometry" />
        </mxCell>
        <mxCell id="wQ_3aqAwWKURMxEr-K-f-116" style="edgeStyle=orthogonalEdgeStyle;rounded=0;orthogonalLoop=1;jettySize=auto;html=1;exitX=0.5;exitY=1;exitDx=0;exitDy=0;entryX=0.61;entryY=0.01;entryDx=0;entryDy=0;entryPerimeter=0;endArrow=none;endFill=0;fillColor=none;strokeColor=#000000;fontColor=#000000;" parent="1" source="wQ_3aqAwWKURMxEr-K-f-64" target="wQ_3aqAwWKURMxEr-K-f-111" edge="1">
          <mxGeometry relative="1" as="geometry" />
        </mxCell>
        <mxCell id="wQ_3aqAwWKURMxEr-K-f-117" value="appointment_id" style="ellipse;whiteSpace=wrap;html=1;align=center;fontStyle=4;fillColor=none;strokeColor=#000000;fontColor=#000000;" parent="1" vertex="1">
          <mxGeometry x="-120" y="-660" width="100" height="40" as="geometry" />
        </mxCell>
        <mxCell id="wQ_3aqAwWKURMxEr-K-f-118" value="&lt;span style=&quot;border-bottom: 1px dotted&quot;&gt;maintainer&lt;/span&gt;" style="ellipse;whiteSpace=wrap;html=1;align=center;fillColor=none;strokeColor=#000000;fontColor=#000000;" parent="1" vertex="1">
          <mxGeometry x="-150" y="-380" width="80" height="40" as="geometry" />
        </mxCell>
        <mxCell id="wQ_3aqAwWKURMxEr-K-f-125" style="edgeStyle=orthogonalEdgeStyle;rounded=0;orthogonalLoop=1;jettySize=auto;html=1;entryX=0.5;entryY=1;entryDx=0;entryDy=0;endArrow=none;endFill=0;fillColor=none;strokeColor=#000000;fontColor=#000000;" parent="1" source="wQ_3aqAwWKURMxEr-K-f-119" target="wQ_3aqAwWKURMxEr-K-f-12" edge="1">
          <mxGeometry relative="1" as="geometry" />
        </mxCell>
        <mxCell id="wQ_3aqAwWKURMxEr-K-f-119" value="&lt;span style=&quot;border-bottom: 1px dotted&quot;&gt;rpa&lt;/span&gt;" style="ellipse;whiteSpace=wrap;html=1;align=center;fillColor=none;strokeColor=#000000;fontColor=#000000;" parent="1" vertex="1">
          <mxGeometry x="-81" y="-420" width="43" height="40" as="geometry" />
        </mxCell>
        <mxCell id="wQ_3aqAwWKURMxEr-K-f-124" style="edgeStyle=orthogonalEdgeStyle;rounded=0;orthogonalLoop=1;jettySize=auto;html=1;entryX=0.137;entryY=1.033;entryDx=0;entryDy=0;entryPerimeter=0;endArrow=none;endFill=0;fillColor=none;strokeColor=#000000;fontColor=#000000;" parent="1" source="wQ_3aqAwWKURMxEr-K-f-118" target="wQ_3aqAwWKURMxEr-K-f-12" edge="1">
          <mxGeometry relative="1" as="geometry" />
        </mxCell>
        <mxCell id="wQ_3aqAwWKURMxEr-K-f-134" style="edgeStyle=orthogonalEdgeStyle;rounded=0;orthogonalLoop=1;jettySize=auto;html=1;entryX=0;entryY=0.5;entryDx=0;entryDy=0;endArrow=none;endFill=0;fillColor=none;strokeColor=#000000;fontColor=#000000;" parent="1" source="wQ_3aqAwWKURMxEr-K-f-127" target="wQ_3aqAwWKURMxEr-K-f-77" edge="1">
          <mxGeometry relative="1" as="geometry" />
        </mxCell>
        <mxCell id="wQ_3aqAwWKURMxEr-K-f-127" value="maintenance_log_id" style="ellipse;whiteSpace=wrap;html=1;align=center;fontStyle=4;fillColor=none;strokeColor=#000000;fontColor=#000000;" parent="1" vertex="1">
          <mxGeometry x="-90" y="-90" width="130" height="40" as="geometry" />
        </mxCell>
        <mxCell id="wQ_3aqAwWKURMxEr-K-f-129" value="&lt;span style=&quot;border-bottom: 1px dotted&quot;&gt;rpa&lt;/span&gt;" style="ellipse;whiteSpace=wrap;html=1;align=center;fillColor=none;strokeColor=#000000;fontColor=#000000;" parent="1" vertex="1">
          <mxGeometry x="112.5" y="-150" width="43" height="40" as="geometry" />
        </mxCell>
        <mxCell id="wQ_3aqAwWKURMxEr-K-f-130" value="&lt;span style=&quot;border-bottom: 1px dotted&quot;&gt;rpa&lt;/span&gt;" style="ellipse;whiteSpace=wrap;html=1;align=center;fillColor=none;strokeColor=#000000;fontColor=#000000;" parent="1" vertex="1">
          <mxGeometry x="185.5" y="-150" width="43" height="40" as="geometry" />
        </mxCell>
        <mxCell id="wQ_3aqAwWKURMxEr-K-f-131" value="&lt;span style=&quot;border-bottom: 1px dotted&quot;&gt;flight_log_id&lt;/span&gt;" style="ellipse;whiteSpace=wrap;html=1;align=center;fillColor=none;strokeColor=#000000;fontColor=#000000;" parent="1" vertex="1">
          <mxGeometry x="240" y="-150" width="100" height="40" as="geometry" />
        </mxCell>
        <mxCell id="wQ_3aqAwWKURMxEr-K-f-133" style="edgeStyle=orthogonalEdgeStyle;rounded=0;orthogonalLoop=1;jettySize=auto;html=1;exitX=0.5;exitY=1;exitDx=0;exitDy=0;entryX=1;entryY=0.5;entryDx=0;entryDy=0;endArrow=none;endFill=0;fillColor=none;strokeColor=#000000;fontColor=#000000;" parent="1" source="wQ_3aqAwWKURMxEr-K-f-131" target="wQ_3aqAwWKURMxEr-K-f-76" edge="1">
          <mxGeometry relative="1" as="geometry">
            <Array as="points">
              <mxPoint x="306" y="-110" />
              <mxPoint x="306" y="-70" />
            </Array>
          </mxGeometry>
        </mxCell>
        <mxCell id="wQ_3aqAwWKURMxEr-K-f-135" style="edgeStyle=orthogonalEdgeStyle;rounded=0;orthogonalLoop=1;jettySize=auto;html=1;endArrow=none;endFill=0;fillColor=none;strokeColor=#000000;fontColor=#000000;" parent="1" source="wQ_3aqAwWKURMxEr-K-f-129" edge="1">
          <mxGeometry relative="1" as="geometry">
            <mxPoint x="134" y="-90" as="targetPoint" />
          </mxGeometry>
        </mxCell>
        <mxCell id="wQ_3aqAwWKURMxEr-K-f-136" style="edgeStyle=orthogonalEdgeStyle;rounded=0;orthogonalLoop=1;jettySize=auto;html=1;exitX=0.5;exitY=1;exitDx=0;exitDy=0;entryX=0.111;entryY=0.017;entryDx=0;entryDy=0;entryPerimeter=0;endArrow=none;endFill=0;fillColor=none;strokeColor=#000000;fontColor=#000000;" parent="1" source="wQ_3aqAwWKURMxEr-K-f-130" target="wQ_3aqAwWKURMxEr-K-f-76" edge="1">
          <mxGeometry relative="1" as="geometry" />
        </mxCell>
        <mxCell id="wQ_3aqAwWKURMxEr-K-f-138" value="plan_id" style="ellipse;whiteSpace=wrap;html=1;align=center;fontStyle=4;fillColor=none;strokeColor=#000000;fontColor=#000000;" parent="1" vertex="1">
          <mxGeometry x="640" y="-240" width="100" height="40" as="geometry" />
        </mxCell>
        <mxCell id="wQ_3aqAwWKURMxEr-K-f-139" value="mission_id" style="ellipse;whiteSpace=wrap;html=1;align=center;fontStyle=4;fillColor=none;strokeColor=#000000;fontColor=#000000;" parent="1" vertex="1">
          <mxGeometry x="630" y="-90" width="100" height="40" as="geometry" />
        </mxCell>
        <mxCell id="wQ_3aqAwWKURMxEr-K-f-140" value="sortie_id" style="ellipse;whiteSpace=wrap;html=1;align=center;fontStyle=4;fillColor=none;strokeColor=#000000;fontColor=#000000;" parent="1" vertex="1">
          <mxGeometry x="325" width="100" height="40" as="geometry" />
        </mxCell>
        <mxCell id="wQ_3aqAwWKURMxEr-K-f-143" value="&lt;span style=&quot;border-bottom: 1px dotted&quot;&gt;mission&lt;/span&gt;" style="ellipse;whiteSpace=wrap;html=1;align=center;fillColor=none;strokeColor=#000000;fontColor=#000000;" parent="1" vertex="1">
          <mxGeometry x="435" width="100" height="40" as="geometry" />
        </mxCell>
        <mxCell id="wQ_3aqAwWKURMxEr-K-f-148" style="edgeStyle=orthogonalEdgeStyle;rounded=0;orthogonalLoop=1;jettySize=auto;html=1;entryX=1;entryY=0.75;entryDx=0;entryDy=0;endArrow=none;endFill=0;fillColor=none;strokeColor=#000000;fontColor=#000000;" parent="1" source="wQ_3aqAwWKURMxEr-K-f-145" target="wQ_3aqAwWKURMxEr-K-f-13" edge="1">
          <mxGeometry relative="1" as="geometry">
            <Array as="points">
              <mxPoint x="561" y="-10" />
              <mxPoint x="520" y="-10" />
              <mxPoint x="520" y="-55" />
            </Array>
          </mxGeometry>
        </mxCell>
        <mxCell id="wQ_3aqAwWKURMxEr-K-f-145" value="&lt;span style=&quot;border-bottom: 1px dotted&quot;&gt;rpa&lt;/span&gt;" style="ellipse;whiteSpace=wrap;html=1;align=center;fillColor=none;strokeColor=#000000;fontColor=#000000;" parent="1" vertex="1">
          <mxGeometry x="540" y="-30" width="43" height="40" as="geometry" />
        </mxCell>
        <mxCell id="wQ_3aqAwWKURMxEr-K-f-146" style="edgeStyle=orthogonalEdgeStyle;rounded=0;orthogonalLoop=1;jettySize=auto;html=1;endArrow=none;endFill=0;fillColor=none;strokeColor=#000000;fontColor=#000000;" parent="1" source="wQ_3aqAwWKURMxEr-K-f-140" edge="1">
          <mxGeometry relative="1" as="geometry">
            <mxPoint x="375" y="-40" as="targetPoint" />
          </mxGeometry>
        </mxCell>
        <mxCell id="wQ_3aqAwWKURMxEr-K-f-147" style="edgeStyle=orthogonalEdgeStyle;rounded=0;orthogonalLoop=1;jettySize=auto;html=1;entryX=0.897;entryY=0.993;entryDx=0;entryDy=0;entryPerimeter=0;endArrow=none;endFill=0;fillColor=none;strokeColor=#000000;fontColor=#000000;" parent="1" source="wQ_3aqAwWKURMxEr-K-f-143" target="wQ_3aqAwWKURMxEr-K-f-13" edge="1">
          <mxGeometry relative="1" as="geometry" />
        </mxCell>
      </root>
    </mxGraphModel>
  </diagram>
</mxfile>
